<svg width="600" height="600" viewBox="0 0 600 600" fill="none" xmlns="http://www.w3.org/2000/svg">
<rect width="600" height="600" rx="24" fill="#38393D"/>
<path d="M87.25 62H545.25" stroke="white" stroke-opacity="0.31" stroke-width="2" stroke-dasharray="10 10"/>
<path d="M87.25 152H545.25" stroke="white" stroke-opacity="0.31" stroke-width="2" stroke-dasharray="10 10"/>
<path d="M87.25 241H545.25" stroke="white" stroke-opacity="0.31" stroke-width="2" stroke-dasharray="10 10"/>
<path d="M87.25 331H545.25" stroke="white" stroke-opacity="0.31" stroke-width="2" stroke-dasharray="10 10"/>
<path d="M87 421L545 421" stroke="white" stroke-opacity="0.31" stroke-width="2" stroke-dasharray="10 10"/>
<path d="M125.92 527.516H128.294L134.35 542.585L140.393 527.516H142.779L135.264 546H133.41L125.92 527.516ZM125.146 527.516H127.24L127.583 538.789V546H125.146V527.516ZM141.446 527.516H143.541V546H141.104V538.789L141.446 527.516Z" fill="white" fill-opacity="0.4"/>
<path d="M220.976 527.516V546H218.563V527.516H220.976ZM226.917 527.516V529.521H212.635V527.516H226.917Z" fill="white" fill-opacity="0.4"/>
<path d="M297.008 540.414L300.677 527.516H302.454L301.426 532.53L297.478 546H295.713L297.008 540.414ZM293.212 527.516L296.132 540.16L297.008 546H295.256L290.774 527.516H293.212ZM307.202 540.147L310.059 527.516H312.509L308.04 546H306.288L307.202 540.147ZM302.721 527.516L306.288 540.414L307.583 546H305.818L302.01 532.53L300.969 527.516H302.721Z" fill="white" fill-opacity="0.4"/>
<path d="M388.976 527.516V546H386.563V527.516H388.976ZM394.917 527.516V529.521H380.635V527.516H394.917ZM399.652 526.5V546H397.304V526.5H399.652ZM399.094 538.611L398.116 538.573C398.125 537.634 398.264 536.766 398.535 535.971C398.806 535.167 399.187 534.468 399.678 533.876C400.169 533.284 400.753 532.826 401.43 532.505C402.115 532.175 402.873 532.01 403.702 532.01C404.379 532.01 404.989 532.103 405.53 532.289C406.072 532.467 406.533 532.755 406.914 533.152C407.303 533.55 407.6 534.066 407.803 534.701C408.006 535.327 408.107 536.093 408.107 536.999V546H405.746V536.974C405.746 536.254 405.64 535.679 405.429 535.247C405.217 534.807 404.908 534.49 404.502 534.295C404.096 534.092 403.596 533.99 403.004 533.99C402.42 533.99 401.887 534.113 401.404 534.358C400.93 534.604 400.52 534.942 400.173 535.374C399.834 535.806 399.568 536.301 399.373 536.859C399.187 537.41 399.094 537.993 399.094 538.611Z" fill="white" fill-opacity="0.4"/>
<path d="M483.596 527.516V546H481.146V527.516H483.596ZM491.34 535.831V537.837H483.062V535.831H491.34ZM492.597 527.516V529.521H483.062V527.516H492.597Z" fill="white" fill-opacity="0.4"/>
<rect x="115" y="321" width="40" height="185" rx="20" fill="white"/>
<rect x="115.5" y="400.5" width="39" height="105" rx="19.5" fill="#353535"/>
<rect x="115.5" y="400.5" width="39" height="105" rx="19.5" stroke="white"/>
<rect x="115" y="438" width="40" height="68" rx="20" fill="#F2D088"/>
<rect x="200" y="178" width="40" height="329" rx="20" fill="white"/>
<rect x="200.5" y="318.992" width="39" height="187.508" rx="19.5" fill="#353535"/>
<rect x="200.5" y="318.992" width="39" height="187.508" rx="19.5" stroke="white"/>
<rect x="200" y="386.07" width="40" height="120.93" rx="20" fill="#F2D088"/>
<rect x="282" y="59" width="40" height="448" rx="20" fill="white"/>
<rect x="282.5" y="250.808" width="39" height="255.692" rx="19.5" fill="#353535"/>
<rect x="282.5" y="250.808" width="39" height="255.692" rx="19.5" stroke="white"/>
<rect x="282" y="342.33" width="40" height="164.67" rx="20" fill="#F2D088"/>
<rect x="375" y="207" width="40" height="301" rx="20" fill="white"/>
<rect x="375.5" y="336.035" width="39" height="171.465" rx="19.5" fill="#353535"/>
<rect x="375.5" y="336.035" width="39" height="171.465" rx="19.5" stroke="white"/>
<rect x="375" y="397.362" width="40" height="110.638" rx="20" fill="#F2D088"/>
<rect x="467" y="97" width="40" height="410" rx="20" fill="white"/>
<rect x="467.5" y="272.581" width="39" height="233.919" rx="19.5" fill="#353535"/>
<rect x="467.5" y="272.581" width="39" height="233.919" rx="19.5" stroke="white"/>
<rect x="467" y="356.297" width="40" height="150.703" rx="20" fill="#F2D088"/>
<rect width="462" height="2" transform="translate(87 506)" fill="white"/>
<path d="M64.1396 506.285V509.104C64.1396 510.618 64.0042 511.896 63.7334 512.938C63.4626 513.979 63.0732 514.816 62.5654 515.451C62.0576 516.086 61.444 516.547 60.7246 516.835C60.0137 517.114 59.2096 517.254 58.3125 517.254C57.6016 517.254 56.9456 517.165 56.3447 516.987C55.7438 516.81 55.2021 516.526 54.7197 516.137C54.2458 515.739 53.8395 515.223 53.501 514.588C53.1624 513.953 52.9043 513.183 52.7266 512.277C52.5488 511.372 52.46 510.314 52.46 509.104V506.285C52.46 504.77 52.5954 503.501 52.8662 502.477C53.1455 501.452 53.5391 500.632 54.0469 500.014C54.5547 499.387 55.1641 498.939 55.875 498.668C56.5944 498.397 57.3984 498.262 58.2871 498.262C59.0065 498.262 59.6667 498.351 60.2676 498.528C60.877 498.698 61.4186 498.973 61.8926 499.354C62.3665 499.726 62.7686 500.225 63.0986 500.852C63.4372 501.469 63.6953 502.227 63.873 503.124C64.0508 504.021 64.1396 505.075 64.1396 506.285ZM61.7783 509.484V505.892C61.7783 505.062 61.7275 504.334 61.626 503.708C61.5329 503.073 61.3932 502.532 61.207 502.083C61.0208 501.634 60.7839 501.271 60.4961 500.991C60.2168 500.712 59.891 500.509 59.5186 500.382C59.1546 500.246 58.7441 500.179 58.2871 500.179C57.7285 500.179 57.2334 500.285 56.8018 500.496C56.3701 500.699 56.0062 501.025 55.71 501.474C55.4222 501.922 55.2021 502.51 55.0498 503.238C54.8975 503.966 54.8213 504.851 54.8213 505.892V509.484C54.8213 510.314 54.8678 511.046 54.9609 511.681C55.0625 512.315 55.2106 512.866 55.4053 513.331C55.5999 513.788 55.8369 514.165 56.1162 514.461C56.3955 514.757 56.7171 514.977 57.0811 515.121C57.4535 515.257 57.8639 515.324 58.3125 515.324C58.888 515.324 59.3916 515.214 59.8232 514.994C60.2549 514.774 60.6146 514.431 60.9023 513.966C61.1986 513.492 61.4186 512.887 61.5625 512.15C61.7064 511.406 61.7783 510.517 61.7783 509.484Z" fill="white" fill-opacity="0.4"/>
<path d="M61.2549 412.414V431H58.9062V415.347L54.1709 417.073V414.953L60.8867 412.414H61.2549Z" fill="white" fill-opacity="0.4"/>
<path d="M64.6475 339.07V341H52.5488V339.312L58.6045 332.57C59.3493 331.741 59.9248 331.038 60.3311 330.463C60.7458 329.879 61.0335 329.358 61.1943 328.901C61.3636 328.436 61.4482 327.962 61.4482 327.479C61.4482 326.87 61.3213 326.32 61.0674 325.829C60.8219 325.33 60.458 324.932 59.9756 324.636C59.4932 324.34 58.9092 324.191 58.2236 324.191C57.4027 324.191 56.7171 324.352 56.167 324.674C55.6253 324.987 55.2191 325.427 54.9482 325.994C54.6774 326.561 54.542 327.213 54.542 327.949H52.1934C52.1934 326.908 52.4219 325.956 52.8789 325.093C53.3359 324.229 54.013 323.544 54.9102 323.036C55.8073 322.52 56.9118 322.262 58.2236 322.262C59.3916 322.262 60.3903 322.469 61.2197 322.884C62.0492 323.29 62.6839 323.866 63.124 324.61C63.5726 325.347 63.7969 326.21 63.7969 327.2C63.7969 327.742 63.7038 328.292 63.5176 328.851C63.3398 329.401 63.0902 329.951 62.7686 330.501C62.4554 331.051 62.0872 331.593 61.6641 332.126C61.2493 332.659 60.805 333.184 60.3311 333.7L55.3799 339.07H64.6475Z" fill="white" fill-opacity="0.4"/>
<path d="M55.9639 240.603H57.6396C58.4606 240.603 59.1377 240.467 59.6709 240.196C60.2126 239.917 60.6146 239.54 60.877 239.066C61.1478 238.584 61.2832 238.042 61.2832 237.441C61.2832 236.73 61.1647 236.134 60.9277 235.651C60.6908 235.169 60.3353 234.805 59.8613 234.56C59.3874 234.314 58.7865 234.191 58.0586 234.191C57.3984 234.191 56.8145 234.323 56.3066 234.585C55.8073 234.839 55.4137 235.203 55.126 235.677C54.8467 236.151 54.707 236.709 54.707 237.353H52.3584C52.3584 236.413 52.5954 235.558 53.0693 234.788C53.5433 234.018 54.2077 233.404 55.0625 232.947C55.9258 232.49 56.9245 232.262 58.0586 232.262C59.1758 232.262 60.1533 232.461 60.9912 232.858C61.8291 233.248 62.4808 233.832 62.9463 234.61C63.4118 235.381 63.6445 236.341 63.6445 237.492C63.6445 237.958 63.5345 238.457 63.3145 238.99C63.1029 239.515 62.7686 240.006 62.3115 240.463C61.863 240.92 61.279 241.297 60.5596 241.593C59.8402 241.881 58.9769 242.024 57.9697 242.024H55.9639V240.603ZM55.9639 242.532V241.123H57.9697C59.1462 241.123 60.1195 241.263 60.8896 241.542C61.6598 241.821 62.265 242.194 62.7051 242.659C63.1536 243.125 63.4668 243.637 63.6445 244.195C63.8307 244.745 63.9238 245.296 63.9238 245.846C63.9238 246.709 63.7757 247.475 63.4795 248.144C63.1917 248.812 62.7812 249.379 62.248 249.845C61.7233 250.31 61.1055 250.661 60.3945 250.898C59.6836 251.135 58.9092 251.254 58.0713 251.254C57.2673 251.254 56.5098 251.14 55.7988 250.911C55.0964 250.683 54.4743 250.353 53.9326 249.921C53.391 249.481 52.9678 248.943 52.6631 248.309C52.3584 247.665 52.2061 246.933 52.2061 246.112H54.5547C54.5547 246.756 54.6943 247.318 54.9736 247.801C55.2614 248.283 55.6676 248.66 56.1924 248.931C56.7256 249.193 57.3519 249.324 58.0713 249.324C58.7907 249.324 59.4085 249.201 59.9248 248.956C60.4495 248.702 60.8516 248.321 61.1309 247.813C61.4186 247.306 61.5625 246.667 61.5625 245.896C61.5625 245.126 61.4017 244.496 61.0801 244.005C60.7585 243.506 60.3014 243.137 59.709 242.9C59.125 242.655 58.4352 242.532 57.6396 242.532H55.9639Z" fill="white" fill-opacity="0.4"/>
<path d="M66.0283 154.779V156.709H52.6729V155.325L60.9502 142.516H62.8672L60.8105 146.223L55.3389 154.779H66.0283ZM63.4512 142.516V161H61.1025V142.516H63.4512Z" fill="white" fill-opacity="0.4"/>
<path d="M55.5068 63.2021L53.6279 62.7197L54.5547 53.5156H64.0381V55.6865H56.5479L55.9893 60.7139C56.3278 60.5192 56.7552 60.3372 57.2715 60.168C57.7962 59.9987 58.3971 59.9141 59.0742 59.9141C59.929 59.9141 60.695 60.0622 61.3721 60.3584C62.0492 60.6462 62.6247 61.0609 63.0986 61.6025C63.5811 62.1442 63.9492 62.7959 64.2031 63.5576C64.457 64.3193 64.584 65.1699 64.584 66.1094C64.584 66.998 64.4613 67.8148 64.2158 68.5596C63.9788 69.3044 63.6191 69.9561 63.1367 70.5146C62.6543 71.0648 62.0449 71.4922 61.3086 71.7969C60.5807 72.1016 59.7217 72.2539 58.7314 72.2539C57.9867 72.2539 57.2799 72.1523 56.6113 71.9492C55.9512 71.7376 55.3587 71.4202 54.834 70.9971C54.3177 70.5654 53.8945 70.0322 53.5645 69.3975C53.2428 68.7542 53.0397 68.001 52.9551 67.1377H55.1895C55.291 67.8317 55.4941 68.4157 55.7988 68.8896C56.1035 69.3636 56.5013 69.7233 56.9922 69.9688C57.4915 70.2057 58.0713 70.3242 58.7314 70.3242C59.29 70.3242 59.7852 70.2269 60.2168 70.0322C60.6484 69.8376 61.0124 69.5583 61.3086 69.1943C61.6048 68.8304 61.8291 68.3903 61.9814 67.874C62.1423 67.3577 62.2227 66.778 62.2227 66.1348C62.2227 65.5508 62.1423 65.0091 61.9814 64.5098C61.8206 64.0104 61.5794 63.5745 61.2578 63.2021C60.9447 62.8298 60.5596 62.542 60.1025 62.3389C59.6455 62.1273 59.1208 62.0215 58.5283 62.0215C57.7412 62.0215 57.1445 62.1273 56.7383 62.3389C56.3405 62.5505 55.93 62.8382 55.5068 63.2021Z" fill="white" fill-opacity="0.4"/>
</svg>
